<svg width="90" height="90" viewBox="0 0 90 90" fill="none" xmlns="http://www.w3.org/2000/svg">
<path d="M53.4375 67.5V63.2813C53.4375 58.1836 58.9817 53.3619 62.5781 49.9219C67.6477 45.0756 70.3125 38.5647 70.3125 30.9375C70.3125 16.875 59.11 5.62501 45 5.62501C41.6733 5.61573 38.3776 6.26412 35.3024 7.53291C32.2271 8.80169 29.433 10.6658 27.0807 13.0182C24.7283 15.3705 22.8642 18.1646 21.5954 21.2399C20.3266 24.3151 19.6782 27.6108 19.6875 30.9375C19.6875 38.2922 22.4666 45.2443 27.4219 49.9219C30.999 53.2986 36.5625 58.1309 36.5625 63.2813V67.5" stroke="#D91F2F" stroke-width="3" stroke-linecap="round" stroke-linejoin="round"/>
<path d="M39.375 84.375H50.625" stroke="#D91F2F" stroke-width="3" stroke-linecap="round" stroke-linejoin="round"/>
<path d="M36.5625 75.9375H53.4375" stroke="#D91F2F" stroke-width="3" stroke-linecap="round" stroke-linejoin="round"/>
<path d="M45 67.5V45" stroke="#D91F2F" stroke-width="3" stroke-linecap="round" stroke-linejoin="round"/>
<path d="M51.6797 42.1875C51.6797 42.1875 47.8986 45 45 45C42.1014 45 38.3203 42.1875 38.3203 42.1875" stroke="#D91F2F" stroke-width="3" stroke-linecap="round" stroke-linejoin="round"/>
</svg>
