<svg width="80" height="80" viewBox="0 0 80 80" fill="none" xmlns="http://www.w3.org/2000/svg">
<path d="M40 25C42.7614 25 45 22.7614 45 20C45 17.2386 42.7614 15 40 15C37.2386 15 35 17.2386 35 20C35 22.7614 37.2386 25 40 25Z" fill="#383838"/>
<path d="M40 45C42.7614 45 45 42.7614 45 40C45 37.2386 42.7614 35 40 35C37.2386 35 35 37.2386 35 40C35 42.7614 37.2386 45 40 45Z" fill="#383838"/>
<path d="M40 65C42.7614 65 45 62.7614 45 60C45 57.2386 42.7614 55 40 55C37.2386 55 35 57.2386 35 60C35 62.7614 37.2386 65 40 65Z" fill="#383838"/>
</svg>
