<svg width="90" height="90" viewBox="0 0 90 90" fill="none" xmlns="http://www.w3.org/2000/svg">
<path d="M18.7875 16.8412C20.3344 14.94 22.6125 14.0625 24.8288 14.0625H65.1713C67.3819 14.0625 69.66 14.94 71.2125 16.8412C74.4638 20.8238 81.5625 31.095 81.5625 45C81.5625 58.905 74.4638 69.1706 71.2125 73.1587C69.66 75.06 67.3875 75.9375 65.1713 75.9375H24.8288C22.6125 75.9375 20.3344 75.06 18.7875 73.1587C15.5362 69.1706 8.4375 58.905 8.4375 45C8.4375 31.095 15.5362 20.8294 18.7875 16.8412ZM24.8288 19.6875C24.5133 19.6726 24.1985 19.7285 23.9074 19.8511C23.6164 19.9738 23.3565 20.16 23.1469 20.3962C20.2444 23.9569 14.0625 32.9794 14.0625 45C14.0625 57.0206 20.2444 66.0375 23.1469 69.6037C23.4844 70.0144 24.0638 70.3125 24.8344 70.3125H65.1656C65.9362 70.3125 66.5156 70.0144 66.8531 69.6037C69.7556 66.0431 75.9375 57.0206 75.9375 45C75.9375 32.9794 69.7556 23.9625 66.8531 20.3962C66.6429 20.1593 66.3821 19.9726 66.09 19.8499C65.7979 19.7272 65.482 19.6717 65.1656 19.6875H24.8344H24.8288Z" fill="#D91F2F"/>
<path d="M33.75 30.9375C34.4959 30.9375 35.2113 31.2338 35.7387 31.7613C36.2662 32.2887 36.5625 33.0041 36.5625 33.75V42.1875C36.5625 42.9334 36.2662 43.6488 35.7387 44.1762C35.2113 44.7037 34.4959 45 33.75 45C33.0041 45 32.2887 44.7037 31.7613 44.1762C31.2338 43.6488 30.9375 42.9334 30.9375 42.1875V33.75C30.9375 33.0041 31.2338 32.2887 31.7613 31.7613C32.2887 31.2338 33.0041 30.9375 33.75 30.9375ZM56.25 30.9375C56.9959 30.9375 57.7113 31.2338 58.2387 31.7613C58.7662 32.2887 59.0625 33.0041 59.0625 33.75V42.1875C59.0625 42.9334 58.7662 43.6488 58.2387 44.1762C57.7113 44.7037 56.9959 45 56.25 45C55.5041 45 54.7887 44.7037 54.2613 44.1762C53.7338 43.6488 53.4375 42.9334 53.4375 42.1875V33.75C53.4375 33.0041 53.7338 32.2887 54.2613 31.7613C54.7887 31.2338 55.5041 30.9375 56.25 30.9375ZM39.375 56.25V61.875H50.625V56.25C50.625 54.7582 50.0324 53.3274 48.9775 52.2725C47.9226 51.2176 46.4918 50.625 45 50.625C43.5082 50.625 42.0774 51.2176 41.0225 52.2725C39.9676 53.3274 39.375 54.7582 39.375 56.25Z" fill="#D91F2F"/>
</svg>
