<svg width="90" height="90" viewBox="0 0 90 90" fill="none" xmlns="http://www.w3.org/2000/svg">
<path d="M84.375 50.625H67.5C66.0086 50.6235 64.5787 50.0304 63.5242 48.9758C62.4696 47.9213 61.8765 46.4914 61.875 45V16.875C61.8765 15.3836 62.4696 13.9537 63.5242 12.8992C64.5787 11.8446 66.0086 11.2515 67.5 11.25H84.375V16.875H67.5V45H84.375V50.625Z" fill="#D91F2F"/>
<path d="M50.625 16.875C53.7316 16.875 56.25 14.3566 56.25 11.25C56.25 8.1434 53.7316 5.625 50.625 5.625C47.5184 5.625 45 8.1434 45 11.25C45 14.3566 47.5184 16.875 50.625 16.875Z" fill="#D91F2F"/>
<path d="M28.125 56.7675V33.75H22.5V56.7675C20.6234 57.431 19.0419 58.7364 18.0348 60.4532C17.0277 62.17 16.6599 64.1875 16.9965 66.1493C17.3331 68.111 18.3523 69.8905 19.8741 71.1734C21.3958 72.4563 23.3221 73.16 25.3125 73.16C27.3029 73.16 29.2291 72.4563 30.7509 71.1734C32.2727 69.8905 33.2919 68.111 33.6285 66.1493C33.9651 64.1875 33.5973 62.17 32.5902 60.4532C31.5831 58.7364 30.0015 57.431 28.125 56.7675Z" fill="#D91F2F"/>
<path d="M25.3125 84.375C21.4368 84.3794 17.6462 83.2385 14.4167 81.0958C11.1872 78.9531 8.66277 75.9039 7.16039 72.3313C5.65801 68.7586 5.24466 64.8217 5.97226 61.0149C6.69986 57.2081 8.53596 53.7011 11.25 50.9344V19.6875C11.25 15.9579 12.7316 12.381 15.3688 9.74381C18.006 7.10658 21.5829 5.625 25.3125 5.625C29.0421 5.625 32.619 7.10658 35.2562 9.74381C37.8934 12.381 39.375 15.9579 39.375 19.6875V50.9344C42.089 53.7011 43.9251 57.2081 44.6527 61.0149C45.3803 64.8217 44.967 68.7586 43.4646 72.3313C41.9622 75.9039 39.4378 78.9531 36.2083 81.0958C32.9788 83.2385 29.1882 84.3794 25.3125 84.375ZM25.3125 11.25C23.0754 11.2522 20.9306 12.1419 19.3488 13.7238C17.7669 15.3056 16.8772 17.4504 16.875 19.6875V53.3897L15.9413 54.2306C13.8175 56.1288 12.3202 58.6272 11.6476 61.3951C10.9751 64.163 11.1589 67.0699 12.1748 69.731C13.1907 72.3921 14.9908 74.682 17.3368 76.2975C19.6828 77.913 22.4641 78.7781 25.3125 78.7781C28.1609 78.7781 30.9422 77.913 33.2882 76.2975C35.6342 74.682 37.4343 72.3921 38.4502 69.731C39.4661 67.0699 39.6499 64.163 38.9774 61.3951C38.3048 58.6272 36.8075 56.1288 34.6838 54.2306L33.75 53.3897V19.6875C33.7478 17.4504 32.8581 15.3056 31.2762 13.7238C29.6944 12.1419 27.5496 11.2522 25.3125 11.25Z" fill="#D91F2F"/>
</svg>
